<?xml version="1.0" encoding="UTF-8" standalone="no"?>
<!-- Created with Inkscape (http://www.inkscape.org/) -->

<svg
   width="85.459999mm"
   height="85.460197mm"
   viewBox="0 0 85.459999 85.460197"
   version="1.1"
   id="svg5"
   xml:space="preserve"
   xmlns="http://www.w3.org/2000/svg"
   xmlns:svg="http://www.w3.org/2000/svg"><defs
     id="defs2" /><g
     id="layer1"
     transform="translate(-60.590452,-99.256398)"><g
       id="g10021"
       transform="translate(55.372882,-15.259004)"><path
         style="opacity:1;fill:#dd55ff;fill-opacity:1;fill-rule:nonzero;stroke-width:0.199596;stroke-dasharray:none"
         id="path3176"
         d="M 5.2175674,157.24541 A 42.73,42.73 0 0 1 47.850458,114.51552 42.73,42.73 0 0 1 90.677125,157.05119 42.73,42.73 0 0 1 48.238897,199.97441 42.73,42.73 0 0 1 5.219333,157.63385" /><g
         id="g9923"
         transform="translate(3.986084e-6,-8.5335327e-4)"><path
           id="path2838"
           style="opacity:1;fill:#eeaaff;fill-opacity:1;stroke-width:0.332999"
           d="m 57.969693,146.97761 -0.0233,0.008 c -0.10578,0.0439 -0.21168,0.0785 -0.31574,0.10387 l -0.0109,0.004 -0.1018,0.0212 c -0.012,0.002 -0.0242,0.006 -0.0362,0.008 l -0.89452,0.18603 c 0.25495,1.61921 0.15941,2.6376 0.0568,3.40755 0.19757,0.36148 0.46393,0.88625 0.79685,1.63969 0.74722,1.69107 0.27543,3.61787 0.27543,3.61787 l -0.11782,3.93309 -0.11834,3.14606 c 0,0 -4e-5,2.98854 -0.35398,3.30316 -0.35395,0.31462 -3.10679,4.52272 -3.10679,4.52272 l -0.78651,1.84847 -0.78652,1.80919 c 0,0 -0.58982,-0.86541 -0.82579,-1.37666 -0.23596,-0.51126 -0.9834,-0.82579 -0.9834,-0.82579 0,0 -1.0225,-0.74718 -1.53376,-1.17977 -0.51125,-0.4326 -1.02216,-1.1405 -1.02216,-1.1405 0,0 -0.82577,-0.94387 -1.21904,-1.1405 -0.39328,-0.19664 -0.6687,-1.10123 -0.6687,-1.10123 0,0 -0.78656,-1.53363 -1.1405,-2.00556 -0.35399,-0.47193 -0.19673,-1.1013 -0.27543,-1.80919 -0.0787,-0.70789 -1.2976,-1.61231 -1.2976,-1.61231 l -0.71468,-1.68516 c -0.24217,-0.26439 -0.4853,-0.51124 -0.74053,-0.71366 -1.14046,-0.90452 -3.53965,-3.4612 -4.05091,-4.28707 -0.21904,-0.35383 -0.73825,-0.83465 -1.32343,-1.38751 v 5.1e-4 c 0,0 -0.38702,0.0895 -0.79996,0.0305 -0.41293,-0.059 -0.7866,-0.2555 -1.10122,-0.4718 0,0 -6.88244,2.89036 -8.278565,4.34547 -1.396115,1.4551 -0.76661,-0.23581 -1.730127,2.18281 -0.963518,2.41863 -2.497746,5.28949 -2.714046,6.9019 -0.216302,1.61242 -0.353624,1.47478 -0.235644,2.67426 0.117981,1.19948 0.137605,1.41576 0.412894,1.92701 0.275291,0.51126 -0.295072,2.32028 -0.295072,2.32028 l -0.392581,1.80755 v 1.16841 l 0.333313,0.72295 0.33383,1.11208 0.278019,0.83457 0.166915,1.00098 c 0,0 -0.05562,0.72321 0,0.94567 0.05562,0.22247 0.05581,1.16789 0.05581,1.16789 0,0 -0.38964,1.22363 -0.38964,1.50172 0,0.27808 -0.111104,1.22318 -0.111104,1.22318 l -0.33383,2.11357 -0.05529,1.55752 v 0.94517 0.66766 l -0.259932,0.0977 a 42.73,42.73 0 0 0 11.98169,6.49056 l 0.12454,-0.13695 -0.16691,-1.16788 0.27802,-0.94517 0.61185,-1.11259 0.33383,-1.11208 0.33383,-0.88986 0.1111,-1.16841 -0.16691,-0.94516 -0.16692,-0.38964 -0.0553,-0.66714 0.77824,-0.55604 0.38964,-0.38964 0.55604,-0.55604 v -0.66766 l 0.33383,-0.1664 1.16789,0.88987 0.0553,0.61185 0.50075,0.72295 0.33383,0.72296 0.55604,1.16788 0.55603,0.61185 0.77877,0.88987 0.33383,0.72295 0.77876,0.61185 0.61185,0.72296 0.1664,0.27801 -0.50023,0.72296 -0.27802,0.55655 -0.33383,0.55604 -0.33383,0.94516 v 0.72348 0.27802 l -0.61185,0.1111 -0.38912,0.50074 -0.16485,0.24649 a 42.73,42.73 0 0 0 7.90908,0.71366 42.73,42.73 0 0 0 39.7955,-27.93783 l -0.59893,-0.99787 v -0.83458 -1.61282 l 0.0558,-1.16788 -0.1111,-0.94568 -0.66766,-1.22318 -0.33383,-0.83458 -0.38912,-1.00097 -0.55604,-1.2237 -0.44493,-1.16789 -0.61185,-1.22369 -0.44494,-1.22319 -0.72295,-1.22369 -0.66766,-0.88987 -1.27899,-0.83458 -1.61282,-1.11207 -1.33532,-0.33383 -1.27899,-0.61185 -0.83406,-0.27802 -0.88987,-0.33383 -1.00149,-0.27802 -0.94516,-0.33383 -1.05678,-0.33331 -0.66766,-0.11162 -1.00098,-0.33332 -1.4459,-0.33383 c 0,0 -1.11234,-0.16691 -1.33481,-0.16691 -0.22245,0 -1.3348,-0.0558 -1.3348,-0.0558 l -0.72295,-0.1111 -1.16789,-0.83406 -1.11259,-0.50075 -0.94568,-0.55604 -1.00097,-0.38964 -1.00098,-0.50022 -0.83457,-0.22273 -0.55604,-0.1111 z" /><path
           id="path2711"
           style="opacity:1;fill:#c87137;fill-opacity:1;stroke-width:0.332999"
           d="m 47.479373,133.32056 c -0.29656,0.009 -0.56212,0.11301 -0.76894,0.34417 -0.81169,0.90717 -3.69944,1.48356 -4.50464,1.62935 0.057,0.0637 -0.19516,0.39724 -1.78025,1.6521 -2.66963,2.11345 -6.06183,3.05885 -7.45226,4.28243 -1.39043,1.22357 -1.1343,1.33376 -1.1343,1.33376 0,0 0.6111,2.63149 1.29036,5.12269 l -10e-4,-5.2e-4 -0.93018,-0.44493 -0.59479,0.12092 -0.37362,0.43253 c 0,0 -0.11801,0.5704 0.0393,1.41594 0.15731,0.84553 0.55045,1.39587 0.86507,1.71049 0.31462,0.31462 1.3765,1.37661 1.49448,1.78955 0.11798,0.41294 0.80624,0.90456 1.12086,1.12086 0.31462,0.21631 0.68829,0.41282 1.10122,0.47181 0.41294,0.059 0.79996,-0.0305 0.79996,-0.0305 v -5.2e-4 c 0.58518,0.55287 1.10439,1.03369 1.32343,1.38752 0.51126,0.82587 2.91043,3.38254 4.05091,4.28707 0.25523,0.20242 0.49836,0.44926 0.74053,0.71365 l 0.71468,1.68517 c 0,0 1.21894,0.90442 1.2976,1.61231 0.0787,0.70789 -0.0786,1.33726 0.27543,1.80919 0.35394,0.47192 1.1405,2.00556 1.1405,2.00556 0,0 0.27542,0.90459 0.6687,1.10123 0.39327,0.19663 1.21904,1.14049 1.21904,1.14049 0,0 0.51091,0.7079 1.02216,1.1405 0.51126,0.4326 1.53376,1.17978 1.53376,1.17978 0,0 0.74744,0.31453 0.9834,0.82579 0.23597,0.51125 0.82579,1.37666 0.82579,1.37666 l 0.78652,-1.8092 0.78651,-1.84846 c 0,0 2.75284,-4.20811 3.10679,-4.52272 0.35394,-0.31462 0.35398,-3.30316 0.35398,-3.30316 l 0.11834,-3.14606 0.11782,-3.9331 c 0,0 0.47179,-1.92679 -0.27543,-3.61786 -0.33292,-0.75344 -0.59928,-1.27821 -0.79685,-1.6397 0.10667,-0.80081 0.20949,-1.86334 -0.0858,-3.59874 l 0.002,0.007 c 0,0 1.32976,0.27886 2.1084,-0.66663 0.77865,-0.94549 1.50134,-2.55856 1.3901,-3.61528 -0.11123,-1.05673 -0.11111,-2.66961 -0.11111,-2.66961 0,0 -0.72306,-2.16892 -1.50171,-2.33577 -0.77864,-0.16685 -1.27918,-0.16666 -1.77974,0.50074 -0.50055,0.66741 -0.77876,2.50269 -0.77876,2.50269 l -0.0486,3.26337 0.005,0.0222 c -0.69722,-2.42681 -1.23558,-3.28559 -1.23558,-3.28559 0,0 -0.94529,-2.4472 -2.16886,-2.83652 -1.22358,-0.38932 -1.05691,-1.66868 -1.83555,-2.72541 -0.60831,-0.82557 -2.0652,-1.99068 -3.12436,-1.95699 z m -5.27358,1.97352 c -0.039,-0.0436 -0.22272,0.0393 -0.22272,0.0393 0,0 0.09,-0.0152 0.22272,-0.0393 z" /><path
           style="opacity:1;fill:#590071;fill-opacity:0.159624;fill-rule:nonzero;stroke-width:0.133;stroke-dasharray:none"
           d="m 55.160894,174.80297 1.540885,-0.16483 0.472747,-0.0556 0.611791,-0.33371 0.194659,-0.22247 0.361514,-0.22246 0.36151,-0.25028 c 0,0 0.723025,-0.22247 0.834258,-0.41713 0.111236,-0.19466 0.166854,-0.61179 0.166854,-0.61179 l 0.02781,-0.55617 v -0.52837 -0.6396 l 0.05562,-0.63959 0.417129,-0.41713 c 0,0 0.750832,-0.0556 0.862065,-0.0556 0.111236,0 0.917686,0 0.917686,0 0,0 0.695217,0 0.834258,0 0.139044,0 0.361514,-0.11123 0.361514,-0.11123 l 0.473212,-0.90092 -4.227377,-1.71309 -1.724134,1.41823 -1.084538,1.80757 c 0,0 -1.028919,1.91879 -1.001109,2.05783 0.02781,0.13905 -0.389321,1.30701 -0.389321,1.30701 z"
           id="path3974" /><path
           style="opacity:1;fill:#590071;fill-opacity:0.15493;fill-rule:nonzero;stroke-width:0.133;stroke-dasharray:none"
           d="m 40.661896,168.143 0.550482,0.46067 c 0,0 0.333703,0.25028 0.444936,0.27809 0.111237,0.0278 0.44494,0.22247 0.44494,0.36151 0,0.13905 -0.05562,0.44494 -0.05562,0.44494 l 0.389321,0.58398 0.389321,0.41713 0.472747,0.44494 0.695214,0.44494 0.583983,0.11123 0.667406,0.0556 0.74236,-0.20352 -0.05558,-2.28254 c 0,0 -0.09153,-1.42981 -0.69505,-1.55752 -0.603525,-0.12772 -3.086589,-1.47384 -3.086589,-1.47384 0,0 -1.882889,-0.0443 -1.882889,0.0669 0,0.11123 0.395012,1.84744 0.395012,1.84744 z"
           id="path4043" /><path
           id="path2715"
           style="opacity:1;fill:#e993ff;fill-opacity:1;stroke-width:0.332999"
           d="m 56.744963,148.84261 -10e-4,0.002 c 0.0289,0.78561 -0.0342,1.3784 -0.0997,1.87069 0.19757,0.36148 0.46393,0.88625 0.79685,1.63969 0.74722,1.69107 0.27543,3.61787 0.27543,3.61787 l -0.11782,3.93309 -0.11834,3.14606 c 0,0 -4e-5,2.98854 -0.35398,3.30316 -0.35395,0.31462 -3.10679,4.52272 -3.10679,4.52272 l -0.78651,1.84847 -0.78652,1.80919 c 0,0 -0.58982,-0.86541 -0.82579,-1.37666 -0.23596,-0.51126 -0.9834,-0.82579 -0.9834,-0.82579 0,0 -1.0225,-0.74717 -1.53376,-1.17977 -0.51125,-0.4326 -1.02216,-1.1405 -1.02216,-1.1405 0,0 -0.82577,-0.94386 -1.21904,-1.1405 -0.39328,-0.19664 -0.6687,-1.10123 -0.6687,-1.10123 0,0 -0.78656,-1.53363 -1.1405,-2.00556 -0.35399,-0.47193 -0.19673,-1.1013 -0.27543,-1.80919 -0.0787,-0.70789 -1.2976,-1.6123 -1.2976,-1.6123 l -0.71468,-1.68517 c -0.24217,-0.26439 -0.4853,-0.51124 -0.74053,-0.71365 -0.50287,-0.39884 -1.24889,-1.12098 -1.97145,-1.87224 l -0.007,-0.003 -0.26045,1.79059 -0.55655,2.33577 -0.66715,1.94665 -0.72295,1.61282 -0.75086,1.64073 c 0,0 -0.38942,0.63949 -0.47284,0.86196 -0.0834,0.22247 1.1126,0.36174 1.1126,0.36174 0,0 1.50142,0.19447 1.86293,-0.0558 0.36151,-0.25028 2.53053,-0.88977 2.80862,-0.86196 0.27809,0.0278 0.36173,1.3348 0.36173,1.3348 0,0 0.50019,1.41842 1.52911,1.83554 1.02891,0.41713 2.69751,1.05679 2.69751,1.05679 l 1.3627,0.66714 1.41852,0.41703 c 0,0 1.41787,1.08488 1.52911,1.1405 0.11123,0.0556 0.52865,0.61185 0.52865,0.61185 l 0.27802,0.66714 -0.41703,1.02888 -0.50075,0.77876 -0.36173,0.88987 c 0,0 -0.22209,0.30599 -0.33332,0.47284 -0.11124,0.16685 0.10542,0.84801 0.10542,0.84801 0,0 0.55084,-2.08421 2.87115,-3.53932 2.32029,-1.45511 4.75836,-3.30367 4.75836,-3.30367 l 0.5116,-3.89331 c 0,0 4.28623,-0.55052 4.91546,-0.0393 0.62924,0.51126 1.14102,0.51108 1.14102,0.51108 0,0 0.23571,-2.28118 -0.19689,-2.91041 -0.4326,-0.62924 -1.06188,-4.99465 -1.49448,-6.05648 -0.4326,-1.06184 -1.17977,-3.93258 -1.17977,-3.93258 l -0.78652,-2.16317 -1.57303,-2.24121 -1.25832,-1.80919 z" /><path
           style="opacity:1;fill:#dd55ff;fill-opacity:1;fill-rule:nonzero;stroke-width:0.0826223;stroke-dasharray:none"
           d="m 57.957863,185.26547 c 0.181941,-0.0208 0.362714,-0.0518 0.54118,-0.0928 0.20439,-0.047 0.408773,-0.10752 0.61849,-0.10606 0.120306,8.4e-4 0.241826,0.0221 0.36009,1e-5 0.03994,-0.007 0.07893,-0.0198 0.119177,-0.0254 0.04024,-0.006 0.08306,-0.004 0.118863,0.0154 0.01484,0.008 0.02842,0.0189 0.0447,0.0232 0.01917,0.005 0.03952,3.7e-4 0.0584,-0.006 0.01888,-0.006 0.03773,-0.0136 0.05756,-0.0142 0.01423,-4.2e-4 0.02831,0.003 0.04204,0.007 0.01373,0.004 0.02737,0.008 0.04146,0.0101 0.02621,0.004 0.05279,-0.001 0.07884,-0.006 0.02604,-0.005 0.05261,-0.009 0.07883,-0.006 0.01408,0.002 0.02771,0.006 0.04142,0.01 0.01371,0.004 0.02777,0.007 0.04198,0.007 0.01982,-5e-4 0.03871,-0.008 0.05759,-0.0139 0.01889,-0.006 0.03913,-0.0108 0.05838,-0.006 0.01637,0.004 0.03025,0.0145 0.0447,0.0232 0.06419,0.0386 0.143901,0.0431 0.217847,0.0312 0.07395,-0.0119 0.144508,-0.0387 0.216503,-0.0594 0.150961,-0.0433 0.308144,-0.0592 0.46387,-0.0795 0.375996,-0.049 0.747958,-0.12441 1.12102,-0.19223 0.372905,-0.0678 0.747288,-0.12806 1.11796,-0.20716 0.140579,-0.03 0.280634,-0.0627 0.42217,-0.0878 0.244736,-0.0434 0.494946,-0.0643 0.73141,-0.14087 0.06263,-0.0203 0.124019,-0.0444 0.18717,-0.063 0.163146,-0.0481 0.336233,-0.0589 0.49643,-0.11601 0.04988,-0.0178 0.09815,-0.04 0.14852,-0.0563 0.08737,-0.0284 0.180497,-0.039 0.26449,-0.0762 0.0875,-0.0387 0.161773,-0.10489 0.2523,-0.13591 0.06359,-0.0218 0.131808,-0.025 0.197884,-0.0374 0.03304,-0.006 0.06583,-0.0147 0.09638,-0.0288 0.03055,-0.014 0.05888,-0.0337 0.0801,-0.0598 0.01032,-0.0127 0.01916,-0.027 0.0325,-0.0365 0.01619,-0.0115 0.03692,-0.0143 0.05677,-0.015 0.01985,-6.9e-4 0.04005,3.1e-4 0.0592,-0.005 0.02696,-0.007 0.04895,-0.0263 0.0713,-0.0431 0.105926,-0.0796 0.236023,-0.11963 0.36505,-0.1498 0.129027,-0.0302 0.260901,-0.0523 0.38367,-0.10212 0.137432,-0.0558 0.260158,-0.14517 0.40082,-0.19226 0.08707,-0.0291 0.179475,-0.0415 0.26449,-0.0762 0.08734,-0.0356 0.164953,-0.0941 0.25535,-0.12099 0.05823,-0.0174 0.119615,-0.021 0.178994,-0.0339 0.02969,-0.006 0.05903,-0.0153 0.08615,-0.029 0.02712,-0.0137 0.05203,-0.0324 0.07054,-0.0565 0.005,-0.006 0.0095,-0.0134 0.01462,-0.0198 0.0051,-0.006 0.01089,-0.0124 0.01788,-0.0167 0.01126,-0.007 0.02482,-0.009 0.03801,-0.01 0.01319,-7.8e-4 0.02655,-5.4e-4 0.03939,-0.004 0.0136,-0.003 0.02608,-0.0102 0.03761,-0.0181 0.01153,-0.008 0.02228,-0.0169 0.03369,-0.025 0.05456,-0.0387 0.121297,-0.055 0.18413,-0.0779 0.20734,-0.0757 0.377462,-0.22697 0.57275,-0.32983 0.08628,-0.0454 0.179434,-0.0828 0.24925,-0.15083 0.03308,-0.0323 0.06077,-0.0713 0.10072,-0.0945 0.02355,-0.0137 0.05011,-0.0211 0.07574,-0.0303 0.02563,-0.009 0.05132,-0.0209 0.06973,-0.041 0.01104,-0.012 0.01928,-0.0269 0.0325,-0.0365 0.01078,-0.008 0.02396,-0.0115 0.03687,-0.0147 0.01291,-0.003 0.02614,-0.006 0.03743,-0.0135 0.01535,-0.01 0.02561,-0.0254 0.03416,-0.0414 0.0085,-0.016 0.01603,-0.0327 0.02784,-0.0464 0.01829,-0.0212 0.045,-0.0328 0.07085,-0.0436 0.02584,-0.0108 0.05266,-0.022 0.07158,-0.0426 0.0122,-0.0133 0.02033,-0.0297 0.02906,-0.0455 0.0087,-0.0158 0.01856,-0.0316 0.03304,-0.0424 0.01878,-0.014 0.04301,-0.0179 0.06446,-0.0273 0.01072,-0.005 0.021,-0.011 0.02858,-0.0199 0.0038,-0.004 0.0069,-0.01 0.0088,-0.0151 0.0019,-0.006 0.0027,-0.0115 0.0019,-0.0173 -6.5e-4,-0.005 -0.0024,-0.01 -0.0039,-0.0148 -0.0015,-0.005 -0.0027,-0.01 -0.0021,-0.015 4.07e-4,-0.004 0.0018,-0.008 0.0039,-0.0109 0.0021,-0.003 0.0048,-0.006 0.0078,-0.009 0.0061,-0.005 0.01337,-0.008 0.02062,-0.0109 0.0072,-0.003 0.01464,-0.006 0.02119,-0.01 0.0065,-0.004 0.0123,-0.0102 0.01465,-0.0177 0.0023,-0.007 0.0011,-0.0154 -0.0012,-0.0228 -0.0023,-0.007 -0.0057,-0.0144 -0.0078,-0.0219 -0.0039,-0.0138 -0.0033,-0.0287 8.33e-4,-0.0424 0.0042,-0.0137 0.01178,-0.0263 0.02137,-0.0369 0.01917,-0.0213 0.04557,-0.0348 0.0724,-0.0449 0.01325,-0.005 0.02681,-0.009 0.03942,-0.0158 0.01261,-0.006 0.02441,-0.0153 0.03188,-0.0273 0.0063,-0.0102 0.0092,-0.022 0.01229,-0.0336 0.0031,-0.0116 0.0067,-0.0233 0.01411,-0.0327 0.0094,-0.012 0.02411,-0.0188 0.03893,-0.0224 0.01481,-0.004 0.03015,-0.004 0.04519,-0.007 0.01504,-0.003 0.03026,-0.007 0.04208,-0.0166 0.0059,-0.005 0.01086,-0.0109 0.01388,-0.0179 0.003,-0.007 0.004,-0.0149 0.0024,-0.0224 -5.6e-4,-0.002 -0.0014,-0.005 -0.0021,-0.007 -6.62e-4,-0.002 -0.0011,-0.005 -9.3e-4,-0.008 3.01e-4,-0.004 0.002,-0.007 0.0046,-0.01 0.0025,-0.003 0.0058,-0.004 0.0093,-0.006 0.007,-0.002 0.01451,-0.002 0.02178,-7.2e-4 0.0073,8.9e-4 0.01467,0.002 0.02187,6.3e-4 0.0036,-6.9e-4 0.0071,-0.002 0.01008,-0.004 0.003,-0.002 0.0054,-0.005 0.0066,-0.009 8.36e-4,-0.002 10e-4,-0.005 8.31e-4,-0.008 -2.15e-4,-0.003 -8.44e-4,-0.005 -0.0016,-0.008 -0.0016,-0.005 -0.0039,-0.01 -0.0052,-0.0146 -0.0029,-0.0117 2.69e-4,-0.0244 0.0072,-0.0342 0.0069,-0.01 0.01725,-0.0169 0.02842,-0.0214 0.02235,-0.009 0.04721,-0.008 0.07122,-0.009 0.05889,-0.003 0.115778,-0.0242 0.167305,-0.053 0.05153,-0.0287 0.0982,-0.0653 0.143896,-0.10264 0.04569,-0.0373 0.09076,-0.0756 0.13987,-0.10832 0.04911,-0.0327 0.102709,-0.0598 0.160329,-0.0725 0.03832,-0.008 0.07791,-0.0103 0.11596,-0.0199 0.06398,-0.0161 0.121943,-0.0533 0.18719,-0.063 0.01952,-0.003 0.03932,-0.003 0.05895,-0.005 0.01963,-0.002 0.03943,-0.006 0.05701,-0.0146 0.01235,-0.006 0.0233,-0.0151 0.0356,-0.0215 0.02954,-0.0154 0.06472,-0.0159 0.09761,-0.0107 0.03288,0.005 0.06471,0.0158 0.0975,0.0216 0.03279,0.006 0.0678,0.007 0.09809,-0.007 0.01515,-0.007 0.02879,-0.0175 0.0383,-0.0311 0.0095,-0.0137 0.01471,-0.0305 0.01335,-0.0471 -4.14e-4,-0.005 -0.0014,-0.0101 -0.003,-0.0149"
           id="path2979" /><path
           style="opacity:1;fill:#dd55ff;fill-opacity:1;fill-rule:nonzero;stroke-width:0.133;stroke-dasharray:none"
           d="m 73.014783,169.46234 -0.31462,1.37646 0.0393,0.82587 v 0.70789 l 0.11798,0.98319 0.27529,0.82587 0.11798,0.8652 0.0393,0.90453 0.31462,0.51126 0.27529,0.51125 -0.0787,0.4326 -0.19664,0.47193 -0.0787,0.66856 c 0,0 0.0393,0.35395 0.0787,0.51126 0.0393,0.15731 0.0787,0.0787 0.0787,0.35395 0,0.27529 1.14049,0.74722 1.14049,0.74722 l 0.39327,-0.11798 0.23596,0.35394 0.0787,0.66856 0.0786,0.2753 c 0,0 0.0393,0.23596 0.0787,0.4326 0.0393,0.19663 0.0393,0.55058 0.0393,0.78654 0,0.23597 -0.51126,0.66857 -0.51126,0.90453 0,0.23597 0,0.90453 0,1.06184 0,0.15731 -0.74722,0.55058 -0.8652,0.82587 -0.11798,0.2753 -0.55058,0.55059 -0.62924,0.74722 -0.0786,0.19664 -0.35394,0.66857 -0.35394,0.66857 0,0 -0.23597,0.4326 -0.23597,0.66856 0,0.23597 -0.0393,0.66857 0,0.90453 0.0393,0.23597 0.19664,0.98319 0.27529,1.17982 0.0787,0.19664 0.55059,0.70789 0.55059,0.70789 l 0.82587,0.15731 -0.66857,-0.55058 -0.31461,-0.78655 -0.35395,-1.14049 c 0,0 -0.23596,-0.62924 0.0393,-0.78655 0.27529,-0.15731 0.62923,-0.66856 0.78654,-0.74722 0.15731,-0.0786 0.58991,-0.82587 0.58991,-0.82587 l 0.35395,-0.47193 0.39327,-0.98318 c 0,0 -0.19663,-0.58991 0,-0.70789 0.19664,-0.11798 0.55059,-1.17982 0.55059,-1.17982 l -0.19664,-1.17982 -0.23596,-0.70789 -0.70789,-0.51126 -0.35395,-0.11798 -0.4326,-0.19664 -0.47193,-0.55058 0.0787,-1.53377 0.82588,-0.1573"
           id="path2985" /><path
           style="opacity:1;fill:#dd55ff;fill-opacity:1;fill-rule:nonzero;stroke-width:0.133;stroke-dasharray:none"
           d="m 75.158723,178.99283 c 0,0 1.75194,-0.0834 1.86317,-0.11123 0.11124,-0.0278 1.66852,-0.47275 1.66852,-0.47275 0,0 0.52836,-0.30589 0.72303,-0.44494 0.19466,-0.13904 0.6396,-0.47274 0.6396,-0.47274 0,0 0.30589,-0.36151 0.41712,-0.44494 0.11124,-0.0834 0.47275,-0.3059 0.58398,-0.44494 0.11124,-0.13904 0.33371,-0.27808 0.50056,-0.38932 0.16685,-0.11123 0.75083,-0.47275 0.88987,-0.58398 0.13905,-0.11123 0.69522,-0.55617 0.86207,-0.66741 0.16685,-0.11123 0.52837,-0.36151 0.75083,-0.61179 0.22247,-0.25027 0.52837,-0.55617 0.52837,-0.55617 0,0 0.19466,-0.22247 0.44494,-0.41713 0.25028,-0.19466 0.61179,-0.44494 0.72302,-0.55617 0.11124,-0.11123 0.27809,-0.27809 0.36151,-0.38932 0.0834,-0.11124 0.36151,-0.52836 0.41713,-0.69522 0.0556,-0.16685 -0.86207,0.66741 -0.86207,0.66741 l -0.19465,0.13904 -0.47275,0.44494 -0.55617,0.38932 -0.55618,0.25028 -0.52836,0.52836 -0.41713,0.36151 -0.30589,0.36152 -0.27809,0.38932 -0.50056,0.36151 -0.58398,0.41713 -0.44494,0.30589 c 0,0 -0.25027,0.13905 -0.38932,0.25028 -0.13904,0.11124 -0.38931,0.27809 -0.38931,0.27809 l -0.27809,0.13904 -0.38932,0.19466 -0.36151,0.22247 c 0,0 -0.33371,0.16685 -0.44494,0.30589 -0.11124,0.13905 -0.36151,0.3059 -0.36151,0.3059 l -0.6396,0.16685 -0.55618,0.0834 -0.44493,0.11124 -0.25028,0.0556 c 0,0 -0.0556,0.0278 -0.27809,0.13904 -0.22247,0.11124 -0.41713,0.16685 -0.41713,0.16685 0,0 0.25028,0.0556 -0.13904,0.13905 -0.38932,0.0834 -0.3337,0.0834 -0.3337,0.0834 z"
           id="path2987" /><path
           style="opacity:1;fill:#dd55ff;fill-opacity:1;fill-rule:nonzero;stroke-width:0.133;stroke-dasharray:none"
           d="m 74.666483,177.24916 0.21415,-1.20404 -0.0834,-0.27809 c 0,0 -0.0278,-0.52836 0.13905,-0.75083 0.16685,-0.22247 0.36151,-0.50056 0.36151,-0.50056 l 0.52836,-0.77864 c 0,0 0.52837,-0.50055 0.6396,-0.58398 0.11124,-0.0834 0.50056,-0.52836 0.66741,-0.69521 0.16685,-0.16685 0.19466,-0.38932 0.36151,-0.58399 0.16685,-0.19465 0.47275,-0.52836 0.47275,-0.52836 0,0 0.3337,-0.50055 0.44493,-0.61179 0.11124,-0.11123 0.66741,-0.50055 0.80645,-0.61179 0.13905,-0.11123 0.38933,-0.30589 0.52837,-0.47274 0.13904,-0.16685 0.44494,-0.69522 0.52836,-0.80645 0.0834,-0.11124 0.25028,-0.52837 0.36152,-0.66741 0.11123,-0.13904 0.16685,-0.22247 0.30589,-0.41713 0.13904,-0.19466 0.19466,-0.36151 0.41713,-0.61179 0.22247,-0.25028 0.3059,-0.38932 0.38932,-0.52836 0.0834,-0.13905 0.16685,-0.44494 0.22247,-0.55618 0.0556,-0.11123 -0.22247,-0.0278 -0.33371,0.11124 -0.11123,0.13904 -0.61178,0.47274 -0.61178,0.47274 l -0.27809,0.44494 -0.38932,0.38932 -0.55617,0.27809 -0.33371,0.6396 c 0,0 -0.11123,0.16685 -0.16685,0.30589 -0.0556,0.13905 -0.3337,0.47275 -0.3337,0.47275 l -0.33371,0.47275 -0.44493,0.55617 -0.36152,0.55617 -0.22247,0.33371 -0.25027,0.50055 -0.61179,0.55617 -0.41713,0.33371 -0.36151,0.50055 -0.3059,0.27809 -0.25028,0.25028 -0.44493,0.30589 -0.22247,0.0556 -0.36152,0.11124 -0.13904,0.3337 0.41713,0.13904 0.50056,0.11124 c 0,0 0.22247,0.16685 0.0834,0.36151 -0.13904,0.19466 -0.25027,0.25028 -0.25027,0.25028 l -0.25028,0.25028 c 0,0 -0.11124,0.3337 -0.11124,0.47274 0,0.13904 -0.11123,0.33371 -0.11123,0.33371 z"
           id="path2989" /><path
           style="opacity:1;fill:#dd55ff;fill-opacity:1;fill-rule:nonzero;stroke-width:0.133;stroke-dasharray:none"
           d="m 50.598043,179.45159 -0.189,1.09853 c 0,0 0.0278,0.44493 0.0556,0.55617 0.0278,0.11123 0.0556,0.69522 0.0556,0.69522 l 0.38932,1.16796 c 0,0 0,0.27808 0,0.41712 0,0.13905 0,0.50056 0.0278,0.6118 0.0278,0.11123 0.0278,0.6674 0.0278,0.83425 0,0.16686 0.25028,0.80645 0.27809,0.9455 0.0278,0.13904 0.0556,0.41713 0.11124,0.58398 0.0556,0.16685 0.0556,0.61179 0,0.75083 -0.0556,0.13904 -0.13905,0.44494 -0.13905,0.6396 0,0.19466 0.0278,0.72303 0.0834,0.91768 0.0556,0.19466 0.22247,0.61179 0.36151,0.91769 0.13905,0.30589 0.0556,0.58398 0.13905,0.75083 0.0834,0.16685 0.0834,0.86207 0.0834,1.08454 0,0.22247 0.13904,0.94549 0.19466,1.14015 0.0556,0.19466 0.66741,1.94661 0.66741,1.94661 v 0.6674 c 0,0 0.0278,0.86207 0.0556,0.9733 0.0278,0.11124 0.47275,0.66741 0.50056,0.77865 0.0278,0.11123 0.11124,0.52836 0.13904,0.6674 0.0278,0.13905 0.16685,0.50055 0.19466,0.61179 0.0278,0.11124 0.16686,0.69522 0.16686,0.80646 0,0.11123 0.13904,0.25027 0.16685,0.38932 0.0278,0.13903 0.30589,-0.0556 0.30589,-0.0556 l -0.11123,-0.58398 -0.16685,-0.50057 -0.13905,-0.61178 -0.25028,-0.33371 -0.22247,-0.58398 c 0,0 -0.13904,-0.25027 -0.19465,-0.47274 -0.0556,-0.22247 -0.13905,-0.38932 -0.13905,-0.6396 0,-0.25028 0,-0.80645 0,-0.91768 0,-0.11124 -0.13904,-1.19578 -0.13904,-1.19578 l -0.36151,-0.38932 -0.3059,-0.80645 -0.0556,-0.61179 v -0.6674 -0.77864 l -0.16686,-0.6396 -0.19466,-0.41713 -0.16685,-0.75084 V 187.836 l 0.11123,-0.75084 v -1.00111 l -0.0834,-0.80645 -0.22247,-0.61179 -0.30589,-0.47274 v -0.58399 l -0.16685,-0.86206 -0.16686,-0.44494 v -0.58398 c 0,0 0.16686,-0.41713 0.16686,-0.52837 0,-0.11123 -0.13905,-0.36151 -0.13905,-0.47274 0,-0.11124 -0.0556,-0.41713 -0.0556,-0.55617 0,-0.13905 -0.20032,-0.7092 -0.20032,-0.7092 z"
           id="path2991" /><path
           style="opacity:1;fill:#dd55ff;fill-opacity:1;fill-rule:nonzero;stroke-width:0.133;stroke-dasharray:none"
           d="m 54.250343,175.41125 0.0446,1.71992 v 0.47193 1.17982 c 0,0 0.39327,1.2978 0.4326,1.45511 0.0393,0.15731 0.0393,1.25848 0.0393,1.25848 0,0 0.27529,0.78654 0.27529,0.94385 0,0.15731 0.0393,1.2978 0.0787,1.49444 0.0393,0.19664 0.0393,0.82587 0.0786,1.06184 0.0393,0.23596 0.35394,1.21915 0.4326,1.57309 0.0787,0.35395 0.15731,1.37646 0.23596,1.7304 0.0787,0.35395 0.23597,1.37646 0.31462,1.76973 0.0787,0.39328 0.11798,1.25848 0.2753,1.73041 0.1573,0.47192 0.35394,1.33713 0.43259,1.53376 0.0787,0.19664 0.47193,1.17982 0.47193,1.17982 l 0.19664,0.98319 0.35395,0.8652 0.0393,0.78654 0.27529,0.90453 v 0.35395 l 0.35395,0.23596 0.11798,-0.19664 -0.27529,-0.4326 -0.19664,-0.94385 -0.27529,-1.06184 v -0.47193 l -0.27529,-0.47193 -0.0787,-0.47192 -0.27529,-0.70789 -0.0393,-0.62924 -0.23596,-0.39328 -0.23597,-0.51125 -0.0393,-0.15731 -0.19663,-0.78655 -0.11798,-0.70789 -0.23597,-0.78654 v -0.47193 l -0.11798,-0.62924 -0.0393,-0.66857 c 0,0 -0.23596,-0.74721 -0.23596,-0.90452 0,-0.15731 -0.0787,-0.62924 -0.0787,-0.62924 l -0.2752,-1.41579 v -0.8652 l 0.0393,-0.8652 v -0.94385 c 0,0 0.0393,-0.4326 -0.0393,-0.62924 -0.0787,-0.19664 -0.23596,-0.39327 -0.23596,-0.58991 0,-0.19664 0,-0.62924 0,-0.78655 0,-0.15731 -0.31462,-1.17982 -0.31462,-1.17982 l -0.0787,-0.55058 v -0.94386 l -0.0393,-0.82587 -0.39328,-0.51126 z"
           id="path2993" /><path
           style="opacity:1;fill:#dd55ff;fill-opacity:1;fill-rule:nonzero;stroke-width:0.133;stroke-dasharray:none"
           d="m 27.689403,164.97729 0.50055,2.05783 0.55618,1.2792 0.27808,1.33482 0.88988,1.39043 0.16685,1.39043 0.61179,1.27919 c 0,0 0.16685,1.05673 0.38932,1.39043 0.22247,0.33371 0.72302,1.11235 0.88988,1.39044 0.16685,0.27808 0.88987,1.72413 0.88987,1.72413 l 1.22358,2.05784 c 0,0 0.55618,1.2792 0.66741,1.6129 0.11123,0.3337 1.00111,1.89099 1.05673,2.11345 0.0556,0.22247 1.00125,2.66983 1.00125,2.66983 l 1.19553,1.19579 0.5284,1.02888 c 0,0 0.0558,0.13901 0.33383,0.72295 0.27802,0.58395 0.83405,1.47381 0.83405,1.47381 0,0 0.88987,0.83432 1.05679,1.1958 0.16691,0.36147 0.80666,0.97332 1.11259,1.3348 0.30592,0.36147 0.52813,1.36245 0.52813,1.36245 l 1.52954,1.14026 c 0,0 1.44605,1.33481 1.72414,1.55728 0.27809,0.22246 -0.44494,-0.66741 -0.44494,-0.66741 0,0 -0.77864,-0.44494 -0.94549,-0.72302 -0.16685,-0.27809 -1.61313,-1.66859 -1.61313,-1.66859 l -2.28023,-2.78071 c 0,0 -1.50145,-2.22467 -1.50145,-2.22467 l -0.88987,-2.05775 -1.16789,-0.88987 -0.89002,-2.50297 -2.78086,-5.95105 -0.44494,-1.05673 -0.72302,-2.00222 c 0,0 -0.38932,-1.11234 -0.50056,-1.33481 -0.11123,-0.22247 -0.72302,-1.16796 -0.72302,-1.16796 l -0.27809,-1.55728 -0.3337,-0.88988 c 0,0 -0.55617,-0.50056 -0.61179,-0.72302 -0.0556,-0.22247 -0.44494,-0.72303 -0.44494,-0.72303 l -0.66741,-1.9466 z"
           id="path2995" /><path
           id="path2997"
           style="opacity:1;fill:#ffffb0;fill-opacity:1;fill-rule:nonzero;stroke-width:0.133;stroke-dasharray:none"
           d="m 41.420833,159.42181 0.006,0.96687 0.13901,0.52865 0.0553,0.61185 c 0,0 0.22282,0.41699 0.25063,0.55603 0.0278,0.13905 0.0553,0.83406 0.0553,0.83406 l 0.0837,0.66766 v 0.91777 l 0.0832,0.77825 0.0558,0.94568 c 0,0 0.0833,0.47281 0.11111,0.61185 0.0278,0.13904 0.13901,0.86196 0.13901,0.86196 l 0.14831,0.15762 0.0682,0.19792 0.0636,0.29352 0.0816,0.68574 0.52297,0.97721 0.35811,0.42013 0.64803,0.43821 1.04644,0.416 0.58756,0.22944 0.12455,0.0486 0.56792,0.21962 0.093,-0.80253 -0.11111,-0.36122 -0.25063,-0.30592 -0.1943,-0.47284 -0.22273,-0.58395 c 0,0 -0.3057,-0.33379 -0.38912,-0.47284 -0.0834,-0.13904 -0.30593,-0.63975 -0.30593,-0.63975 v -0.44493 l -0.0558,-0.47284 0.29766,-0.78083 c -0.004,-0.007 -0.008,-0.0145 -0.0124,-0.0217 l -0.4129,-0.66146 c -0.13623,-0.18163 -0.19637,-0.38705 -0.22376,-0.61082 l -5.1e-4,-0.002 5.1e-4,-5.1e-4 c -0.0434,-0.35717 -0.003,-0.76168 -0.0517,-1.19631 -0.0787,-0.70789 -1.2976,-1.61231 -1.2976,-1.61231 l -0.71468,-1.68517 c -0.24217,-0.26439 -0.4853,-0.51123 -0.74053,-0.71365 -0.17482,-0.13865 -0.38145,-0.31936 -0.60409,-0.52348 z m 5.19658,12.36462 v 5.2e-4 l 0.37104,0.14262 z" /><path
           id="path2847"
           style="opacity:1;fill:#c87137;fill-opacity:1;stroke-width:0.332999"
           d="m 47.479373,133.32056 c -0.29656,0.009 -0.56212,0.11301 -0.76894,0.34417 -0.81169,0.90717 -3.69944,1.48356 -4.50464,1.62935 0.057,0.0637 -0.19516,0.39724 -1.78025,1.6521 -2.66963,2.11345 -6.06183,3.05885 -7.45226,4.28243 -1.39043,1.22357 -1.1343,1.33376 -1.1343,1.33376 0,0 0.6111,2.63149 1.29036,5.12269 l -10e-4,-5.2e-4 -0.93018,-0.44493 -0.59479,0.12092 -0.37362,0.43253 c 0,0 -0.11801,0.5704 0.0393,1.41594 0.15731,0.84553 0.55045,1.39587 0.86507,1.71049 0.31462,0.31462 1.3765,1.37661 1.49448,1.78955 0.11798,0.41294 0.80624,0.90456 1.12086,1.12086 0.31462,0.21631 0.68829,0.41282 1.10122,0.47181 0.41294,0.059 0.79996,-0.0305 0.79996,-0.0305 v -5.2e-4 c 0.58518,0.55287 1.10439,1.03369 1.32343,1.38752 0.51126,0.82587 2.91043,3.38254 4.05091,4.28707 0.25523,0.20242 0.49836,0.44926 0.74053,0.71365 l 0.71468,1.68517 c 0,0 1.21894,0.90442 1.2976,1.61231 0.0787,0.70789 -0.0786,1.33726 0.27543,1.80919 0.35394,0.47192 1.1405,2.00556 1.1405,2.00556 0,0 0.27542,0.90459 0.6687,1.10123 0.39327,0.19663 1.21904,1.14049 1.21904,1.14049 0,0 0.51091,0.7079 1.02216,1.1405 0.51126,0.4326 1.53376,1.17978 1.53376,1.17978 0,0 0.74744,0.31453 0.9834,0.82579 0.23597,0.51125 0.82579,1.37666 0.82579,1.37666 l 0.78652,-1.8092 0.78651,-1.84846 c 0,0 2.75284,-4.20811 3.10679,-4.52272 0.35394,-0.31462 0.35398,-3.30316 0.35398,-3.30316 l 0.11834,-3.14606 0.11782,-3.9331 c 0,0 0.47179,-1.92679 -0.27543,-3.61786 -0.33292,-0.75344 -0.59928,-1.27821 -0.79685,-1.6397 0.10667,-0.80081 0.20949,-1.86334 -0.0858,-3.59874 l 0.002,0.007 c 0,0 1.32976,0.27886 2.1084,-0.66663 0.77865,-0.94549 1.50134,-2.55856 1.3901,-3.61528 -0.11123,-1.05673 -0.11111,-2.66961 -0.11111,-2.66961 0,0 -0.72306,-2.16892 -1.50171,-2.33577 -0.77864,-0.16685 -1.27918,-0.16666 -1.77974,0.50074 -0.50055,0.66741 -0.77876,2.50269 -0.77876,2.50269 l -0.0486,3.26337 0.005,0.0222 c -0.69722,-2.42681 -1.23558,-3.28559 -1.23558,-3.28559 0,0 -0.94529,-2.4472 -2.16886,-2.83652 -1.22358,-0.38932 -1.05691,-1.66868 -1.83555,-2.72541 -0.60831,-0.82557 -2.0652,-1.99068 -3.12436,-1.95699 z m -5.27358,1.97352 c -0.039,-0.0436 -0.22272,0.0393 -0.22272,0.0393 0,0 0.09,-0.0152 0.22272,-0.0393 z" /><path
           id="path7736"
           style="opacity:1;fill:#4d4d4d;fill-opacity:0.206573;fill-rule:nonzero;stroke-width:0.133;stroke-dasharray:none"
           d="m 56.644088,150.71535 -0.804602,2.84375 c 0,0 0.0279,1.02895 0.0279,1.1958 0,0.16684 -0.305925,1.19579 -0.305925,1.19579 l -0.556038,1.05678 c 0,0 -0.05581,0.5561 -0.05581,0.72295 0,0.16685 -0.556039,1.02888 -0.556039,1.02888 l -0.611849,1.05678 -0.834057,1.33481 -0.07183,0.97616 0.877983,-0.14159 0.72347,-0.30592 0.333313,-0.47284 1.001489,-1.72444 0.722953,-1.02888 1.133265,-0.87644 0.04806,-1.60403 c 0,0 0.471784,-1.9268 -0.275436,-3.61787 -0.332919,-0.75344 -0.59928,-1.27821 -0.79685,-1.63969 z" /><path
           id="path1687"
           style="opacity:1;fill:#363636;fill-opacity:1;stroke-width:0.332999"
           d="m 43.341123,120.04179 c -2.01501,0.0357 -4.76451,1.08837 -5.64048,1.3317 -1.00111,0.27808 -3.83749,2.39158 -3.83749,2.39158 0,0 -3.05945,1.05646 -4.00492,2.00195 -0.94549,0.94549 -2.44676,3.05898 -2.55799,4.17132 -0.11123,1.11234 0.61172,1.89116 0.27802,2.72541 -0.33371,0.83426 -0.778763,2.22467 -0.778763,2.22467 0,0 0.389187,2.39159 0.111105,2.83652 -0.278088,0.44494 -0.389384,1.39022 0.278019,3.50367 0.667409,2.11344 1.279509,1.05678 1.279509,1.05678 0,0 1.00118,0.77849 2.39158,3.22564 0.21836,0.38431 0.3678,0.65644 0.47439,0.85783 l 0.5824,0.31058 0.28163,0.56017 0.93018,0.44493 0.001,5.2e-4 c -0.0849,-0.3114 -0.16891,-0.62497 -0.25063,-0.93534 -0.57202,-2.17259 -1.03973,-4.18735 -1.03973,-4.18735 0,0 -0.004,-0.002 -0.008,-0.007 -0.004,-0.005 -0.009,-0.0142 -0.01,-0.0289 -0.003,-0.0442 0.0238,-0.13937 0.18241,-0.33797 0.0529,-0.0662 0.12043,-0.14393 0.20619,-0.23513 0.0858,-0.0912 0.18968,-0.19563 0.31575,-0.31574 0.12606,-0.12011 0.27423,-0.25581 0.44803,-0.40876 0.0435,-0.0382 0.0886,-0.076 0.13591,-0.11369 0.0473,-0.0377 0.0969,-0.0753 0.14779,-0.11265 0.10188,-0.0746 0.21056,-0.14867 0.32608,-0.22221 1.27071,-0.80893 3.32656,-1.57168 5.28237,-2.75849 0.1778,-0.10789 0.35472,-0.21961 0.5302,-0.33486 0.35096,-0.23051 0.69621,-0.47635 1.02991,-0.74053 1.18882,-0.94114 1.62807,-1.36407 1.74925,-1.54357 0.0202,-0.0299 0.0311,-0.0531 0.0357,-0.0708 0.005,-0.0177 0.002,-0.0298 -0.005,-0.0377 -0.13274,0.024 -0.22272,0.0393 -0.22272,0.0393 0,0 0.14075,-0.0635 0.20205,-0.0501 0.009,0.002 0.0158,0.005 0.0207,0.0108 0.65423,-0.11846 2.68336,-0.52101 3.85661,-1.15445 0.0902,-0.0487 0.17514,-0.099 0.25425,-0.15038 0.15822,-0.10287 0.29232,-0.21113 0.39378,-0.32453 0.20682,-0.23116 0.47238,-0.33473 0.76894,-0.34417 0.0662,-0.002 0.13409,3.6e-4 0.20309,0.007 0.069,0.007 0.13913,0.018 0.21032,0.0331 0.99673,0.21172 2.17868,1.1943 2.71095,1.91667 0.53531,0.7265 0.62358,1.55833 1.02423,2.13372 0.0364,0.0523 0.0757,0.10258 0.11782,0.15038 0.0421,0.0478 0.0874,0.0932 0.13642,0.13591 0.14707,0.12824 0.32765,0.23241 0.55708,0.30541 0.0409,0.013 0.0812,0.0286 0.12144,0.046 0.017,0.007 0.0338,0.0162 0.0506,0.0243 0.0233,0.0112 0.0467,0.0225 0.0698,0.0351 0.0177,0.01 0.0352,0.0201 0.0527,0.0305 0.0232,0.0138 0.0463,0.0279 0.0692,0.0429 0.0163,0.0107 0.0324,0.0218 0.0486,0.0331 0.0215,0.015 0.0429,0.0305 0.0641,0.0465 0.0187,0.0142 0.0373,0.0285 0.0558,0.0434 0.0266,0.0214 0.0529,0.0437 0.0791,0.0667 0.006,0.005 0.0117,0.01 0.0176,0.015 0.002,0.001 0.003,0.003 0.005,0.005 0.0163,0.0146 0.032,0.0304 0.0481,0.0455 0.0525,0.0493 0.10454,0.10074 0.15503,0.15503 0.008,0.008 0.016,0.0162 0.0238,0.0248 10e-4,0.001 0.003,0.003 0.004,0.005 0.0544,0.0597 0.10684,0.12243 0.15865,0.18655 0.0129,0.0159 0.026,0.0314 0.0388,0.0475 0.0482,0.0613 0.0948,0.12434 0.14056,0.1881 0.0472,0.0657 0.092,0.13229 0.13642,0.19947 0.0135,0.0204 0.0282,0.04 0.0413,0.0605 0.0598,0.0926 0.11649,0.1859 0.17054,0.27802 0.0558,0.0951 0.1079,0.1883 0.15709,0.27957 0.28947,0.53708 0.46096,0.97875 0.46096,0.97875 0,0 0.53836,0.85878 1.23558,3.28559 l -0.005,-0.0222 0.0486,-3.26337 c 0,0 0.27821,-1.83528 0.77876,-2.50269 0,0 -0.77857,-2.22466 -1.16789,-3.55947 -0.38932,-1.33481 -0.16691,-3.00344 -0.16691,-3.00344 0,0 -0.0554,-1.33492 -0.22221,-3.00343 -0.16685,-1.66851 -3.05924,-4.17132 -3.05924,-4.17132 0,0 -2.61392,-1.66856 -3.39256,-2.39159 -0.77864,-0.72302 -2.50295,-1.77986 -4.50515,-2.11356 -0.25028,-0.0417 -0.52294,-0.0573 -0.81081,-0.0522 z m -12.00702,26.32707 -0.25218,-0.13436 c 0,0 0.82437,1.21538 0.25218,0.13436 z" /><path
           style="opacity:1;fill:#363636;fill-opacity:1;fill-rule:nonzero;stroke-width:0.133;stroke-dasharray:none"
           d="m 42.765292,160.65984 1.08468,1.17212 0.511257,0.35395 0.471927,0.62924 0.707892,0.31461 0.58991,0.43261 0.707893,0.31462 1.219147,0.1573 c 0,0 0.58991,0 0.865201,0 0.275291,0 1.061839,-0.11798 1.061839,-0.11798 l 1.061836,-0.31462 c 0,0 0.707893,-0.55058 0.865201,-0.62923 0.157311,-0.0787 0.58991,-0.4326 0.58991,-0.4326 l 0.74722,-0.82588 0.314619,-0.62924 0.432601,-0.74722 0.471927,-0.78654 0.58991,-1.33713 0.511257,-1.06184 0.275291,-0.66856 0.196635,-0.82588 0.196636,-0.8652 0.353946,-1.33713 0.03933,-0.94385 0.07865,-0.86521 -0.06598,-0.92992 2.3e-4,-0.001 0.05375,-0.44883 0.04019,-0.51069 0.0136,-0.43997 -0.0068,-0.4732 -0.03283,-0.5025 -0.0514,-0.52832 -0.03837,-0.26838 -0.06191,-0.4198 -0.716421,-2.99829 -0.0052,-0.0216 -0.38844,0.27866 0.05562,1.00111 -0.05562,0.72303 v 0.6674 l -0.05562,0.66741 v 0.83426 l -0.111233,0.66741 -0.278088,0.50055 -0.166852,0.22247 -0.111233,0.27808 -0.389321,0.6118 0.556172,0.72302 0.111234,0.44494 0.278088,0.83426 v 0.77864 0.83426 0.6674 0.50056 l -0.278088,0.72302 c 0,0 -0.22247,0.27809 -0.278085,0.55617 -0.05562,0.27809 -0.278088,0.50056 -0.278088,0.72303 0,0.22247 -0.222469,0.6674 -0.278085,0.88987 -0.05562,0.22247 -0.222469,0.50056 -0.222469,0.72303 0,0.22247 -0.389322,0.72302 -0.389322,0.72302 l -0.556172,0.83426 -0.77864,0.77864 -0.889876,0.72303 -0.500557,0.44494 -0.556173,0.22246 -0.667406,0.38932 h -0.333703 l -0.778642,0.11124 -0.889876,0.0556 h -0.723024 l -0.723024,-0.0556 -0.77864,-0.38932 -0.556173,-0.55617 -0.556172,-0.22247 -0.778643,-0.9455 z"
           id="path4837" /><path
           style="opacity:1;fill:#945429;fill-opacity:1;fill-rule:nonzero;stroke-width:0.133;stroke-dasharray:none"
           d="m 56.50712,142.12987 0.152948,-0.25028 0.06952,-0.16685 0.04171,-0.11124 0.12514,-0.19466 0.125137,-0.0695 0.291992,0.0834 0.02781,0.19466 0.139044,0.16685 c 0,0 0.111233,0.0973 0.166851,0.13904 0.05562,0.0417 0.278085,0.0417 0.278085,0.0417 l 0.139044,-0.0834 0.22247,-0.0417 0.139043,0.12513 0.06952,0.25028 0.139041,0.3337 0.01392,0.19467 c 0,0 -0.02781,0.19466 -0.05562,0.26418 -0.02781,0.0695 -0.139044,0.23637 -0.139044,0.23637 l -0.12514,0.23637 -0.194659,0.25028 -0.236373,0.18076 -0.264182,0.25028 c 0,0 -0.06952,0.0973 -0.111236,0.16685 -0.04171,0.0695 -0.180755,0.12514 -0.222467,0.18075 -0.04171,0.0556 -0.09733,0.0556 -0.12514,0.12514 -0.02781,0.0695 -0.236373,0.19466 -0.236373,0.25028 0,0.0556 -0.05562,0.11123 -0.05562,0.16685 0,0.0556 -0.166855,0.15295 -0.166855,0.15295 l -0.139041,-0.0417 -0.02781,-0.3059 c 0,0 0.04171,-0.20856 0.09733,-0.25028 0.05561,-0.0417 0.208563,-0.13904 0.208563,-0.13904 0,0 0.208566,-0.25028 0.278088,-0.29199 0.06952,-0.0417 0.222467,-0.22247 0.222467,-0.22247 l 0.194662,-0.19466 0.139044,-0.25028 0.125137,-0.22247 0.06952,-0.26418 -0.05562,-0.25028 -0.09733,-0.18075 -0.194659,-0.11124 -0.111236,-0.0834 -0.19466,-0.13904 -0.05562,-0.23638 -0.08343,-0.13904 -0.125138,-0.0278 -0.208565,0.13904 -0.180756,0.18076 z"
           id="path7948" /><path
           style="opacity:1;fill:#945429;fill-opacity:1;fill-rule:nonzero;stroke-width:0.133;stroke-dasharray:none"
           d="m 58.892677,138.96312 0.2163,0.19664 0.216299,0.49159 0.07866,0.29495 0.09832,0.49159 0.11798,0.55059 v 0.37361 0.51125 0.45227 l 0.176975,0.47193 -0.03933,0.39327 c 0,0 -0.137647,0.31462 -0.157308,0.39327 -0.01966,0.0787 -0.157311,0.35395 -0.157311,0.35395 l -0.196635,0.27529 -0.137647,0.29495 -0.255627,0.25563 -0.393274,0.31462 -0.157308,0.25563 -0.255628,0.25563 h -0.255629 l -0.2163,-0.17698 c 0,0 0.157311,-0.29495 0.255627,-0.29495 0.09832,0 0.294955,-0.17697 0.294955,-0.17697 l 0.235966,-0.23597 0.412935,-0.37361 0.157311,-0.45226 0.157308,-0.47193 0.09832,-0.33428 0.117981,-0.4326 0.09832,-0.2753 0.03933,-0.2163 v -0.25562 l -0.09832,-0.15731 -0.11798,-0.19664 -0.137647,-0.17697 -0.07865,-0.0983 -0.275291,-0.35395 -0.157308,-0.19663 -0.137647,-0.19664 -0.176972,-0.15731 -0.294955,-0.17697 c 0,0 -0.07865,-0.19664 0,-0.2163 0.07865,-0.0197 0.412935,-0.0197 0.412935,-0.0197 0,0 0.176975,0 0.25563,0 0.07865,0 0.157308,-0.2163 0.157308,-0.2163 v -0.0983 l -0.294955,-0.11798 h -0.176971 -0.216303 l -0.03933,-0.23597 h 0.432601 l 0.157311,-0.11798 z"
           id="path7950" /><path
           style="opacity:1;fill:#363636;fill-opacity:1;fill-rule:nonzero;stroke-width:0.133;stroke-dasharray:none"
           d="m 32.883694,148.83175 -0.05561,0.31979"
           id="path7952" /><path
           style="opacity:1;fill:#945429;fill-opacity:1;fill-rule:nonzero;stroke-width:0.133;stroke-dasharray:none"
           d="m 32.925408,148.91517 -0.208565,0.3337 0.04171,0.22247 0.01389,0.20857 0.04172,0.29199 0.180755,0.29199 c 0,0 0.152948,0.13904 0.194659,0.20856 0.04171,0.0695 0.152948,0.29199 0.152948,0.29199 l 0.194662,0.20857 0.125137,0.20856 0.166852,0.15295 0.180755,0.16685 0.12514,0.23638 0.264181,0.25027 0.278088,0.25028 0.236373,0.15295 c 0,0 0.166852,0.12514 0.222467,0.15295 0.05562,0.0278 0.139044,0.11123 0.139044,0.11123 l 0.06952,0.0695 0.06952,0.12514 0.152948,0.25028 -0.278088,-0.0417 c 0,0 -0.125137,-0.0278 -0.152948,-0.0834 -0.02781,-0.0556 -0.180755,-0.19466 -0.180755,-0.19466 l -0.208563,-0.0417 -0.22247,-0.13905 -0.208565,-0.0973 -0.208564,-0.26418 -0.180758,-0.18075 -0.250277,-0.27809 -0.180755,-0.3059 -0.152948,-0.25028 -0.250277,-0.22246 -0.22247,-0.26419 -0.194659,-0.29198 -0.166852,-0.27809 c 0,0 -0.09733,-0.20857 -0.09733,-0.26418 0,-0.0556 0.04171,-0.19467 0.04171,-0.19467 l -0.111233,-0.22246 -0.12514,-0.23638 v -0.34761 l 0.02781,-0.19465 0.236373,-0.0834 c 0,0 0.12514,-0.0139 0.180758,0 0.05561,0.0139 0.194659,0.11123 0.194659,0.11123 z"
           id="path7954" /><path
           style="opacity:1;fill:#363636;fill-opacity:1;fill-rule:nonzero;stroke-width:0.133;stroke-dasharray:none"
           d="m 55.450424,144.38234 0.05558,-0.31978 0.08343,-0.23637 -0.01389,-0.16685 0.02053,-0.35413 0.245285,0.8096 z"
           id="path7956" /><path
           style="opacity:1;fill:#dd55ff;fill-opacity:1;fill-rule:nonzero;stroke-width:0.133;stroke-dasharray:none"
           d="m 23.943223,191.37894 0.194661,-0.33371 0.583981,-0.38932 0.723024,-0.25028 0.500555,-0.0278 0.806449,0.13904 1.001112,0.13904 c 0,0 1.334813,0 1.446049,0 0.111233,0 0.695214,-0.13904 0.695214,-0.13904 0,0 0.278087,-0.41713 0.444939,-0.47275 0.166851,-0.0556 0.750832,-0.3337 0.945494,-0.36151 0.194659,-0.0278 0.778639,-0.19466 0.778639,-0.19466 l 0.500555,-0.16685 0.278088,-1.14016 c 0,0 0.02781,-0.38932 -0.111234,-0.38932 -0.139044,0 -1.390433,0.33371 -1.390433,0.33371 l -0.389321,0.19466 -0.862065,-0.22247 -0.333703,-0.38932 -0.778643,-0.55618 -0.361513,-0.22246 -0.611788,-0.22247 -0.417129,-0.22247 -0.361514,-0.50056 v -0.6396 l -0.834258,-0.3337 -0.472746,-0.16685 -0.444938,-0.36151 -0.194661,-0.3059 -0.417129,-0.52836 -0.389321,-0.50056 c 0,0 -0.278086,-0.0834 -0.278086,0.0556 0,0.13904 0.278086,0.88988 0.278086,0.88988 l 0.166852,0.50055 0.417129,0.44494 0.333704,0.22247 0.750833,0.0834 0.556173,0.25028 0.194659,0.36152 0.22247,0.50055 -0.417129,0.44494 -0.444939,0.22247 -0.556173,0.63959 -0.889875,0.27809 -0.639599,0.30589 -0.361512,0.3059 -0.250277,0.38932 -0.194661,0.44494 c 0,0 -0.222469,0.0278 -0.08343,0.3337 0.139044,0.3059 0.166852,0.38932 0.166852,0.50056 0,0.11123 -0.333703,0.47275 -0.333703,0.47275 0,0 -0.05562,0.13904 -0.05562,0.27808 0,0.13904 -0.08342,0.27809 0,0.38932 0.08343,0.11123 0.305895,0.22247 0.305895,0.22247 h 0.222469 z"
           id="path7958" /><path
           style="opacity:1;fill:#dd55ff;fill-opacity:1;fill-rule:nonzero;stroke-width:0.133;stroke-dasharray:none"
           d="m 24.165692,181.97962 -0.222469,-0.88988 v -0.72302 -0.83426 l 0.667407,-0.50055 c 0,0 0.556173,0.75083 0.695216,0.83426 0.139043,0.0834 0.973302,0.11123 1.167962,0.11123 0.19466,0 1.362623,-0.16685 1.362623,-0.16685 0,0 0.667406,-0.41713 0.750832,-0.3059 0.08343,0.11124 0.500555,1.05673 0.556173,1.22358 0.05562,0.16686 0.05562,0.55618 0.05562,0.66741 0,0.11123 0.08343,0.83426 0.08343,0.83426 0,0 0.139041,0.47274 0.194659,0.61179 0.05562,0.13904 0.305895,0.6674 0.389321,0.77864 0.08343,0.11123 0.22247,0.66741 0.361511,0.88988 0.139044,0.22246 0.667409,0.41713 0.862068,0.52836 0.194662,0.11124 1.918795,0.69522 1.918795,0.69522 l 0.973302,0.22247 0.58398,0.25027 -0.05562,0.55618 c 0,0 -1.279197,0.36151 -1.390433,0.41712 -0.111234,0.0556 -1.362623,0.0556 -1.6129,0.0556 -0.250278,0 -0.834258,-0.3337 -0.834258,-0.3337 l -0.750832,-0.50056 c 0,0 -0.472747,-0.36151 -0.583983,-0.47275 -0.111233,-0.11123 -0.695214,-0.69521 -0.695214,-0.69521 l -0.333703,-0.6396 -0.22247,-0.47274 -0.58398,-0.55618 -0.695216,-0.11123 L 26.446,182.9529 v -0.47274 l -0.250277,-0.3059 -0.723024,-0.11123 -0.41713,-0.13904 z"
           id="path7960" /><path
           style="opacity:1;fill:#dd55ff;fill-opacity:1;fill-rule:nonzero;stroke-width:0.133;stroke-dasharray:none"
           d="m 25.138994,193.07526 c 0,0 0.111235,-0.3337 0.222469,-0.3337 0.111235,0 0.583981,-0.41713 0.583981,-0.41713 l 0.61179,-0.0834 c 0,0 0.917684,-0.22247 1.02892,-0.22247 0.111233,0 0.500554,0 0.611788,0 0.111236,0 0.889876,0 0.889876,0 h 0.973301 l 0.862068,-0.47274 0.556173,-0.52837 0.778642,-0.6674 1.279197,-1.00111 0.02781,0.6396 -0.472747,0.3337 c 0,0 -0.611791,0.36151 -0.667406,0.47275 -0.05562,0.11123 -0.417129,0.47274 -0.417129,0.47274 l -0.25028,0.41713 c 0,0 -0.389319,0.27809 -0.500555,0.3059 -0.111233,0.0278 -0.667406,0.16685 -0.695214,0.27808 -0.02781,0.11123 -0.222469,0.3059 -0.361513,0.3337 -0.139044,0.0278 -0.778642,0.0278 -0.778642,0.0278 0,0 -0.472744,-0.0834 -0.583981,-0.0834 -0.111233,0 -0.58398,-0.0278 -0.58398,-0.0278 l -0.945494,-0.0278 h -0.361511 l -0.528364,0.16685 -0.194661,0.36151 c 0,0 -0.333703,0.33371 -0.472746,0.36152 -0.139043,0.0278 -0.61179,-0.3059 -0.61179,-0.3059 z"
           id="path7962" /><path
           style="opacity:1;fill:#dd55ff;fill-opacity:1;fill-rule:nonzero;stroke-width:0.133;stroke-dasharray:none"
           d="m 27.489803,168.63559 0.196639,0.98318 -0.03933,0.62924 -0.235966,0.58991 -0.58991,0.51126 -0.668564,0.55058 c 0,0 -0.07865,0.51125 -0.07865,0.66857 0,0.1573 0.550582,0.43259 0.747218,0.62923 0.196638,0.19664 0.511257,0.39327 0.511257,0.39327 0,0 0.786546,0.23597 0.904529,0.39328 0.11798,0.15731 0.8652,0.47193 0.8652,0.47193 0,0 0.550582,0.23596 0.786546,0.39327 0.235966,0.15731 0.865203,0.55058 0.865203,0.55058 l 0.196636,-0.4326 -0.511255,-0.19663 -0.589909,-0.35395 -0.747221,-0.11798 -0.8652,-0.47193 -0.393274,-0.31462 -0.353947,-0.19664 -0.550582,-0.19663 -0.393274,-0.4326 -0.117981,-0.35395 c 0,0 0.03933,-0.19664 0.275292,-0.27529 0.235963,-0.0787 0.589909,-0.31462 0.589909,-0.31462 l 0.353947,-0.51125 0.235963,-0.43261 0.07866,-0.39327 v -0.62924 l -0.07866,-0.51125 z"
           id="path7964" /><path
           style="opacity:1;fill:#ae693b;fill-opacity:1;fill-rule:nonzero;stroke-width:0.133;stroke-dasharray:none"
           d="m 33.583112,140.78032 0.482449,0.26501 0.583981,-0.0556 0.80645,-0.30589 0.667409,-0.33371 0.778639,-0.36151 0.556173,-0.44494 c 0,0 0.973301,-0.47274 1.167963,-0.52836 0.19466,-0.0556 0.444937,-0.16685 0.583981,-0.22247 0.139044,-0.0556 0.611791,-0.30589 0.611791,-0.30589 0,0 0.36151,-0.27809 0.472744,-0.36151 0.111236,-0.0834 0.472747,-0.50056 0.472747,-0.50056 l 0.80645,-0.52836 0.639598,-0.33371 c 0,0 0.389321,-0.3337 0.500557,-0.36151 0.111234,-0.0278 0.55617,-0.11123 0.55617,-0.11123 0,0 0.44494,0 0.583983,0 0.139042,0 0.750832,-0.0556 0.862066,-0.0834 0.111236,-0.0278 0.278088,-0.11124 0.472747,-0.16685 0.194662,-0.0556 0.250277,-0.11124 0.389321,-0.19466 0.139044,-0.0834 0.528365,-0.33371 0.528365,-0.33371 l 0.222467,-0.16685 0.333706,-0.36151 c 0,0 -0.02781,-0.0556 0.166851,-0.13904 0.194659,-0.0834 0.361511,-0.19466 0.611788,-0.25028 0.250278,-0.0556 0.139044,-0.0556 0.361514,-0.0556 0.222467,0 0.278085,0 0.472747,0 0.194659,0 0.333703,0 0.500554,0 0.166852,0 0.250277,-0.0278 0.389321,0.0278 0.139042,0.0556 0.611788,0.13904 0.611788,0.13904 l 0.243877,-0.0736 0.284488,-1.67838 -2.44716,-0.83426 -3.698547,-0.22247 c 0,0 -3.531692,0.33371 -3.698544,0.38932 -0.166854,0.0556 -3.309228,1.39043 -3.309228,1.39043 0,0 -1.890985,0.86207 -1.946603,1.00112 -0.05562,0.13904 -1.390431,1.36262 -1.446049,1.50166 -0.05562,0.13904 -0.194659,2.03003 -0.194659,2.03003 0,0 -0.500555,0.88988 -0.528365,1.02892 -0.02781,0.13904 0.54647,1.54255 0.54647,1.54255 z"
           id="path9481" /><path
           id="path9362"
           style="opacity:1;fill:#363636;fill-opacity:1;stroke-width:0.332999"
           d="m 43.341123,120.04179 c -2.01501,0.0357 -4.76451,1.08837 -5.64048,1.3317 -1.00111,0.27808 -3.83749,2.39158 -3.83749,2.39158 0,0 -3.05945,1.05646 -4.00492,2.00195 -0.94549,0.94549 -2.44676,3.05898 -2.55799,4.17132 -0.11123,1.11234 0.61172,1.89116 0.27802,2.72541 -0.33371,0.83426 -0.778763,2.22467 -0.778763,2.22467 0,0 0.389187,2.39159 0.111105,2.83652 -0.278088,0.44494 -0.389384,1.39022 0.278019,3.50367 0.667409,2.11344 1.279509,1.05678 1.279509,1.05678 0,0 1.00118,0.77849 2.39158,3.22564 0.21836,0.38431 0.3678,0.65644 0.47439,0.85783 l 0.5824,0.31058 0.28163,0.56017 0.93018,0.44493 0.001,5.2e-4 c -0.0849,-0.3114 -0.16891,-0.62497 -0.25063,-0.93534 -0.57202,-2.17259 -1.03973,-4.18735 -1.03973,-4.18735 0,0 -0.004,-0.002 -0.008,-0.007 -0.004,-0.005 -0.009,-0.0142 -0.01,-0.0289 -0.003,-0.0442 0.0238,-0.13937 0.18241,-0.33797 0.0529,-0.0662 0.12043,-0.14393 0.20619,-0.23513 0.0858,-0.0912 0.18968,-0.19563 0.31575,-0.31574 0.12606,-0.12011 0.27423,-0.25581 0.44803,-0.40876 0.0435,-0.0382 0.0886,-0.076 0.13591,-0.11369 0.0473,-0.0377 0.0969,-0.0753 0.14779,-0.11265 0.10188,-0.0746 0.21056,-0.14867 0.32608,-0.22221 1.27071,-0.80893 3.32656,-1.57168 5.28237,-2.75849 0.1778,-0.10789 0.35472,-0.21961 0.5302,-0.33486 0.35096,-0.23051 0.69621,-0.47635 1.02991,-0.74053 1.18882,-0.94114 1.62807,-1.36407 1.74925,-1.54357 0.0202,-0.0299 0.0311,-0.0531 0.0357,-0.0708 0.005,-0.0177 0.002,-0.0298 -0.005,-0.0377 -0.13274,0.024 -0.22272,0.0393 -0.22272,0.0393 0,0 0.14075,-0.0635 0.20205,-0.0501 0.009,0.002 0.0158,0.005 0.0207,0.0108 0.65423,-0.11846 2.68336,-0.52101 3.85661,-1.15445 0.0902,-0.0487 0.17514,-0.099 0.25425,-0.15038 0.15822,-0.10287 0.29232,-0.21113 0.39378,-0.32453 0.20682,-0.23116 0.47238,-0.33473 0.76894,-0.34417 0.0662,-0.002 0.13409,3.6e-4 0.20309,0.007 0.069,0.007 0.13913,0.018 0.21032,0.0331 0.99673,0.21172 2.17868,1.1943 2.71095,1.91667 0.53531,0.7265 0.62358,1.55833 1.02423,2.13372 0.0364,0.0523 0.0757,0.10258 0.11782,0.15038 0.0421,0.0478 0.0874,0.0932 0.13642,0.13591 0.14707,0.12824 0.32765,0.23241 0.55708,0.30541 0.0409,0.013 0.0812,0.0286 0.12144,0.046 0.017,0.007 0.0338,0.0162 0.0506,0.0243 0.0233,0.0112 0.0467,0.0225 0.0698,0.0351 0.0177,0.01 0.0352,0.0201 0.0527,0.0305 0.0232,0.0138 0.0463,0.0279 0.0692,0.0429 0.0163,0.0107 0.0324,0.0218 0.0486,0.0331 0.0215,0.015 0.0429,0.0305 0.0641,0.0465 0.0187,0.0142 0.0373,0.0285 0.0558,0.0434 0.0266,0.0214 0.0529,0.0437 0.0791,0.0667 0.006,0.005 0.0117,0.01 0.0176,0.015 0.002,0.001 0.003,0.003 0.005,0.005 0.0163,0.0146 0.032,0.0304 0.0481,0.0455 0.0525,0.0493 0.10454,0.10074 0.15503,0.15503 0.008,0.008 0.016,0.0162 0.0238,0.0248 10e-4,0.001 0.003,0.003 0.004,0.005 0.0544,0.0597 0.10684,0.12243 0.15865,0.18655 0.0129,0.0159 0.026,0.0314 0.0388,0.0475 0.0482,0.0613 0.0948,0.12434 0.14056,0.1881 0.0472,0.0657 0.092,0.13229 0.13642,0.19947 0.0135,0.0204 0.0282,0.04 0.0413,0.0605 0.0598,0.0926 0.11649,0.1859 0.17054,0.27802 0.0558,0.0951 0.1079,0.1883 0.15709,0.27957 0.28947,0.53708 0.46096,0.97875 0.46096,0.97875 0,0 0.53836,0.85878 1.23558,3.28559 l -0.005,-0.0222 0.0486,-3.26337 c 0,0 0.27821,-1.83528 0.77876,-2.50269 0,0 -0.77857,-2.22466 -1.16789,-3.55947 -0.38932,-1.33481 -0.16691,-3.00344 -0.16691,-3.00344 0,0 -0.0554,-1.33492 -0.22221,-3.00343 -0.16685,-1.66851 -3.05924,-4.17132 -3.05924,-4.17132 0,0 -2.61392,-1.66856 -3.39256,-2.39159 -0.77864,-0.72302 -2.50295,-1.77986 -4.50515,-2.11356 -0.25028,-0.0417 -0.52294,-0.0573 -0.81081,-0.0522 z m -12.00702,26.32707 -0.25218,-0.13436 c 0,0 0.82437,1.21538 0.25218,0.13436 z" /><rect
           style="opacity:1;fill:#dd55ff;fill-opacity:1;fill-rule:nonzero;stroke-width:0.0994135;stroke-dasharray:none"
           id="rect9604"
           width="1.1027755"
           height="1.2733337"
           x="-86.871513"
           y="113.18165"
           transform="matrix(0.60222069,-0.79832965,0.72910771,0.68439897,0,0)" /><path
           style="opacity:1;fill:#363636;fill-opacity:1;fill-rule:nonzero;stroke-width:0.133;stroke-dasharray:none"
           d="m 32.663251,147.46207 0.470723,0.53541 0.180756,0.27809 0.05562,0.20857 0.208566,0.23637 c 0,0 0.139044,0.20856 0.166851,0.26418 0.02781,0.0556 0.278088,0.3198 0.278088,0.37542 0,0.0556 0.125137,0.22247 0.125137,0.22247 l 0.180756,0.3198 0.222469,0.41713 0.180756,0.22246 -0.01389,-0.12514 -0.125137,-0.19465 -0.12514,-0.25028 -0.08343,-0.25028 -0.111234,-0.19466 -0.06952,-0.16685 -0.111237,-0.16685 -0.06952,-0.16686 -0.139044,-0.12514 -0.12514,-0.19465 -0.08342,-0.20857 -0.09733,-0.22247 -0.09733,-0.22247 -0.12514,-0.18075 -0.228097,-0.18781 z"
           id="path9607" /></g></g></g></svg>
